{"title":"The.Woman.In.Black.2012.720p.BRRip.x264.Feel-Free","uid":7243591,"size":2423894039,"categoryP":"video","categoryS":"hd___movies","magnet":"?xt=urn:btih:3a65cc09de772b6c5c7fedd46b5447f61007a547&amp;dn=The.Woman.In.Black.2012.720p.BRRip.x264.Feel-Free&amp;tr=udp%3A%2F%2Ftracker.openbittorrent.com%3A80&amp;tr=udp%3A%2F%2Fopen.demonii.com%3A1337&amp;tr=udp%3A%2F%2Ftracker.coppersurfer.tk%3A6969&amp;tr=udp%3A%2F%2Fexodus.desync.com%3A6969","seeders":0,"leechers":1,"uploader":"hiest","files":-1,"time":1336202140,"description":"8888888888                888      8888888888                       \n888                       888      888                              \n888                       888      888                              \n8888888  .d88b.   .d88b.  888      8888888 888d888 .d88b.   .d88b.  \n888     d8P  Y8b d8P  Y8b 888      888     888P&quot;  d8P  Y8b d8P  Y8b \n888     88888888 88888888 888      888     888    88888888 88888888 \n888     Y8b.     Y8b.     888      888     888    Y8b.     Y8b.     \n888      &quot;Y8888   &quot;Y8888  888      888     888     &quot;Y8888   &quot;Y8888  \n\nGenre:Drama | Horror | Thriller \nLanguage:English\nIMDb: &lt;a href=&quot;\nhttp://www.imdb.com/title/tt1596365&quot; rel=&quot;nofollow&quot; target=&quot;_NEW&quot;&gt;\nhttp://www.imdb.com/title/tt1596365&lt;/a&gt;\nSource:1080p.BluRay.X264.-BLOW Thanks!\nEncoder:Tony\n\nFormat : MPEG-4\nFormat profile : Base Media\nCodec ID : isom\nFile size : 2.25 GiB\nDuration : 1h 35mn\nOverall bit rate mode : Variable\nOverall bit rate : 3 385 Kbps\n\nVideo\nID : 1\nFormat : AVC\nFormat/Info : Advanced Video Codec\nFormat profile : &lt;a class=&quot;__cf_email__&quot; href=&quot;/cdn-cgi/l/email-protection&quot; data-cfemail=&quot;d991b0beb19995ecf7e8&quot;&gt;[email&amp;#160;protected]&lt;/a&gt;&lt;script cf-hash='f9e31' type=&quot;text/javascript&quot;&gt;\n/* &lt;![CDATA[ */!function(){try{var t=&quot;currentScript&quot;in document?document.currentScript:function(){for(var t=document.getElementsByTagName(&quot;script&quot;),e=t.length;e--;)if(t[e].getAttribute(&quot;cf-hash&quot;))return t[e]}();if(t&amp;&amp;t.previousSibling){var e,r,n,i,c=t.previousSibling,a=c.getAttribute(&quot;data-cfemail&quot;);if(a){for(e=&quot;&quot;,r=parseInt(a.substr(0,2),16),n=2;a.length-n;n+=2)i=parseInt(a.substr(n,2),16)^r,e+=String.fromCharCode(i);e=document.createTextNode(e),c.parentNode.replaceChild(e,c)}}}catch(u){}}();/* ]]&gt; */&lt;/script&gt;\nFormat settings, CABAC : Yes\nFormat settings, ReFrames : 3 frames\nCodec ID : avc1\nCodec ID/Info : Advanced Video Coding\nDuration : 1h 35mn\nBit rate : 3 000 Kbps\nMaximum bit rate : 14.4 Mbps\nWidth : 1 280 pixels\nHeight : 544 pixels\nDisplay aspect ratio : 2.35:1\nFrame rate mode : Constant\nFrame rate : 23.976 fps\nColor space : YUV\nChroma subsampling : 4:2:0\nBit depth : 8 bits\nScan type : Progressive\nBits/(Pixel*Frame) : 0.180\nStream size : 1.96 GiB (87%)\nWriting library : x264\n\nAudio\nID : 2\nFormat : AAC\nFormat/Info : Advanced Audio Codec\nFormat profile : LC\nCodec ID : 40\nDuration : 1h 35mn\nBit rate mode : Variable\nBit rate : 444 Kbps\nMaximum bit rate : 572 Kbps\nChannel(s) : 6 channels\nChannel positions : Front: L C R, Side: L R, LFE\nSampling rate : 48.0 KHz\nCompression mode : Lossy\nStream size : 303 MiB (13%)\n\n\nPlot:\nA young lawyer travels to a remote village where he discovers the vengeful ghost of a scorned woman is terrorizing the locals.\n\n\nScreen Shots:\n    &lt;a href=&quot;\nhttp://img526.imageshack.us/img526/1331/vlcsnap2012050507h50m12.png&quot; rel=&quot;nofollow&quot; target=&quot;_NEW&quot;&gt;\nhttp://img526.imageshack.us/img526/1331/vlcsnap2012050507h50m12.png&lt;/a&gt;\n &lt;a href=&quot;\nhttp://img502.imageshack.us/img502/6691/vlcsnap2012050507h52m43.png&quot; rel=&quot;nofollow&quot; target=&quot;_NEW&quot;&gt;\nhttp://img502.imageshack.us/img502/6691/vlcsnap2012050507h52m43.png&lt;/a&gt;\n &lt;a href=&quot;\nhttp://img406.imageshack.us/img406/6388/vlcsnap2012050507h53m57.png&quot; rel=&quot;nofollow&quot; target=&quot;_NEW&quot;&gt;\nhttp://img406.imageshack.us/img406/6388/vlcsnap2012050507h53m57.png&lt;/a&gt;\n &lt;a href=&quot;\nhttp://img801.imageshack.us/img801/1660/vlcsnap2012050507h52m26.png&quot; rel=&quot;nofollow&quot; target=&quot;_NEW&quot;&gt;\nhttp://img801.imageshack.us/img801/1660/vlcsnap2012050507h52m26.png&lt;/a&gt;\n\n\n8888888888                888      8888888888                       \n888                       888      888                              \n888                       888      888                              \n8888888  .d88b.   .d88b.  888      8888888 888d888 .d88b.   .d88b.  \n888     d8P  Y8b d8P  Y8b 888      888     888P&quot;  d8P  Y8b d8P  Y8b \n888     88888888 88888888 888      888     888    88888888 88888888 \n888     Y8b.     Y8b.     888      888     888    Y8b.     Y8b.     \n888      &quot;Y8888   &quot;Y8888  888      888     888     &quot;Y8888   &quot;Y8888  ","torrent":{"xt":"urn:btih:3a65cc09de772b6c5c7fedd46b5447f61007a547","amp;dn":"The.Woman.In.Black.2012.720p.BRRip.x264.Feel-Free","amp;tr":["udp%3A%2F%2Ftracker.openbittorrent.com%3A80","udp%3A%2F%2Fopen.demonii.com%3A1337","udp%3A%2F%2Ftracker.coppersurfer.tk%3A6969","udp%3A%2F%2Fexodus.desync.com%3A6969"],"infoHash":"3a65cc09de772b6c5c7fedd46b5447f61007a547","infoHashBuffer":{"type":"Buffer","data":[58,101,204,9,222,119,43,108,92,127,237,212,107,84,71,246,16,7,165,71]},"announce":[],"urlList":[]}}